# xmcd
#
# Track frame offsets: 
#        150
#        13018
#        28329
#        47012
#        62338
#        78649
#        91126
#        109246
#        123235
#        139832
#        151002
#        156174
#
# Disc length: 2296 seconds
#
# Revision: 0
# Processed by: cddbd v1.5.2PL0 Copyright (c) Steve Scherf et al.
# Submitted via: ExactAudioCopy v0.99pb5
#
DISCID=9108f60c
DTITLE=Tizzy - Scary In Adulthood
DYEAR=1999
DGENRE=Papercut
TTITLE0=Cut Down Fight
TTITLE1=Charmed Life Girls
TTITLE2=Short Leash
TTITLE3=Bumper Sticker Town
TTITLE4=A Hand Grenade In A Hair Salon
TTITLE5=I Hate Football
TTITLE6=Cooking With Gas
TTITLE7=Green and White
TTITLE8=The Underground Eats Its Own
TTITLE9=Elder
TTITLE10=Snowman
TTITLE11=A Quarter and Counting
EXTD=
EXTT0=
EXTT1=
EXTT2=
EXTT3=
EXTT4=
EXTT5=
EXTT6=
EXTT7=
EXTT8=
EXTT9=
EXTT10=
EXTT11=
PLAYORDER=
